<?xml version="1.0" encoding="UTF-8"?>
<svg version="1.1" xmlns="http://www.w3.org/2000/svg" width="512" height="512">
<path d="M0 0 C1.2164352 -0.00551503 1.2164352 -0.00551503 2.45744485 -0.01114148 C5.18421662 -0.02218496 7.91095029 -0.02602326 10.63774109 -0.02983093 C12.58901592 -0.03609501 14.54028956 -0.04274176 16.49156189 -0.04974365 C21.79946491 -0.06715674 27.10735893 -0.07770595 32.41528344 -0.08594918 C35.73019775 -0.09109798 39.04510926 -0.09717372 42.36002159 -0.10346031 C52.72799014 -0.12251203 63.09595155 -0.13674402 73.46393424 -0.14507228 C85.43906489 -0.15484996 97.41401095 -0.1811835 109.38907653 -0.22157317 C118.6409605 -0.25170936 127.89279148 -0.26653873 137.14472359 -0.26985329 C142.67260846 -0.27220633 148.20029613 -0.28120006 153.72812843 -0.30631447 C158.92789815 -0.3295569 164.12734028 -0.3338438 169.32714844 -0.32355309 C171.23552221 -0.32305671 173.14391191 -0.32940709 175.05223656 -0.34310913 C177.65810261 -0.36077275 180.26278592 -0.35374953 182.86865234 -0.34057617 C183.62342765 -0.35154542 184.37820295 -0.36251466 185.15585023 -0.37381631 C191.56749465 -0.29558758 195.0806065 2.08266931 199.48417664 6.52998352 C202.07083964 12.23295958 201.54207943 17.84576008 201.37480164 24.02217102 C201.35675476 25.28287415 201.33870789 26.54357727 201.32011414 27.84248352 C201.27310893 30.94482716 201.2074084 34.04560482 201.12480164 37.14717102 C202.33136414 37.1239679 203.53792664 37.10076477 204.78105164 37.07685852 C206.39562872 37.05808437 208.01021258 37.03988595 209.62480164 37.02217102 C210.41628601 37.00541321 211.20777039 36.9886554 212.02323914 36.97138977 C218.56331162 36.91778262 225.05833924 37.27113633 230.43730164 41.39717102 C235.0375632 46.10441541 236.28726849 49.51355335 236.31230164 56.02217102 C236.26445505 57.73097754 236.20683488 59.43966419 236.12480164 61.14717102 C237.30042664 61.23998352 237.30042664 61.23998352 238.49980164 61.33467102 C241.12480164 62.14717102 241.12480164 62.14717102 242.27006531 64.10420227 C243.452573 68.31407827 243.43010626 72.29353312 243.42558289 76.64717102 C243.42986801 77.5604718 243.43415314 78.47377258 243.43856812 79.41474915 C243.44429809 81.34117302 243.44482152 83.26761853 243.44047546 85.19404602 C243.43731243 88.13712991 243.46080181 91.07921105 243.48612976 94.02217102 C243.48840262 95.89716976 243.48910631 97.77217119 243.48808289 99.64717102 C243.49729263 100.52437805 243.50650238 101.40158508 243.51599121 102.30537415 C243.48071252 106.97436762 243.40800249 110.50735926 240.12480164 114.14717102 C238.07182312 114.74653625 238.07182312 114.74653625 235.74589539 114.70576477 C234.90736023 114.69867493 234.06882507 114.69158508 233.20487976 114.6842804 C232.33282898 114.6514093 231.4607782 114.61853821 230.56230164 114.58467102 C229.68638367 114.57887024 228.8104657 114.57306946 227.90800476 114.5670929 C221.41985535 114.44222474 221.41985535 114.44222474 219.12480164 112.14717102 C218.86410522 110.10458374 218.86410522 110.10458374 218.85014343 107.56147766 C218.84061142 106.6103157 218.83107941 105.65915375 218.82125854 104.6791687 C218.82262566 103.13385719 218.82262566 103.13385719 218.82402039 101.55732727 C218.81973526 100.50186203 218.81545013 99.44639679 218.81103516 98.35894775 C218.80528459 96.12373065 218.80479692 93.88849484 218.80912781 91.65327454 C218.81228558 88.22708797 218.78884458 84.80176622 218.76347351 81.37568665 C218.76120044 79.20706795 218.76049706 77.03844692 218.76152039 74.86982727 C218.75231064 73.84164383 218.74310089 72.81346039 218.73361206 71.75411987 C218.74295525 70.3226487 218.74295525 70.3226487 218.75248718 68.86225891 C218.75154305 67.60222801 218.75154305 67.60222801 218.75057983 66.31674194 C219.21279246 63.63703953 219.93881688 62.73035495 222.12480164 61.14717102 C223.11480164 61.14717102 224.10480164 61.14717102 225.12480164 61.14717102 C224.89649463 59.51898156 224.64136587 57.89453612 224.37480164 56.27217102 C224.16597351 54.91478821 224.16597351 54.91478821 223.95292664 53.52998352 C223.36523995 51.03989727 223.36523995 51.03989727 221.34355164 50.02412415 C219.02903603 49.10932 217.27373988 48.83926837 214.79667664 48.73310852 C213.99745789 48.69443665 213.19823914 48.65576477 212.37480164 48.61592102 C211.54980164 48.58498352 210.72480164 48.55404602 209.87480164 48.52217102 C209.03433289 48.48349915 208.19386414 48.44482727 207.32792664 48.40498352 C205.26056782 48.31101267 203.19271537 48.22801538 201.12480164 48.14717102 C201.12848881 49.09415895 201.13217598 50.04114687 201.13597488 51.0168314 C201.22477764 74.06035002 201.2905068 97.10384644 201.33205032 120.14750004 C201.35267451 131.29125106 201.38079249 142.43488904 201.42655945 153.5785675 C201.46643145 163.29153072 201.49223549 173.00441207 201.50115561 182.71745485 C201.50636972 187.86034463 201.51862197 193.00300019 201.54772186 198.1458149 C201.57489659 202.98768047 201.58324242 207.82921561 201.57723236 212.67115021 C201.57833167 214.4468789 201.5862733 216.22261879 201.60162354 217.99828148 C201.62158409 220.42661586 201.61671936 222.85370969 201.6058197 225.28207397 C201.61747107 225.98150952 201.62912243 226.68094506 201.64112687 227.40157562 C201.57595785 232.7888175 200.07009064 235.79342685 197.12480164 240.14717102 C193.33948257 243.21634865 189.87417843 243.53470742 185.12480164 244.14717102 C185.13265686 245.54008362 185.13265686 245.54008362 185.14067078 246.96113586 C185.15769756 250.40140907 185.17024437 253.84163761 185.17973328 257.28193665 C185.18476678 258.77185268 185.19159406 260.26176376 185.20024109 261.75166321 C185.21234969 263.89132406 185.2180397 266.0309197 185.22245789 268.17060852 C185.23031311 270.10299377 185.23031311 270.10299377 185.23832703 272.07441711 C185.12480164 275.14717102 185.12480164 275.14717102 184.12480164 277.14717102 C184.97004898 277.14050919 185.81529633 277.13384735 186.68615723 277.12698364 C194.64662607 277.06690577 202.60701892 277.02121359 210.56766224 276.9917345 C214.66045606 276.97606956 218.75306277 276.95481644 222.8457489 276.92085266 C226.79444916 276.88828835 230.74296928 276.87032425 234.69179344 276.86253929 C236.19932072 276.85699048 237.70683799 276.84615507 239.21428871 276.82998085 C241.32375622 276.80824472 243.43247673 276.80520238 245.54203796 276.80659485 C246.74338882 276.79993301 247.94473969 276.79327118 249.18249512 276.78640747 C252.12480164 277.14717102 252.12480164 277.14717102 254.01278687 278.51220703 C255.60950109 280.85981097 255.54109219 282.37190066 255.12480164 285.14717102 C253.93723536 286.78000039 253.93723536 286.78000039 252.12480164 288.14717102 C249.69739676 288.52206784 249.69739676 288.52206784 246.75086212 288.52190113 C245.62856909 288.52910767 244.50627606 288.53631422 243.34997416 288.54373914 C241.49265988 288.53267771 241.49265988 288.53267771 239.5978241 288.52139282 C238.28655721 288.52536723 236.97529033 288.52934163 235.62428808 288.53343648 C231.97686796 288.54405383 228.32969181 288.53587478 224.68228221 288.52468598 C220.75175949 288.51586486 216.82126942 288.52428142 212.89074707 288.5305481 C205.18780306 288.54005037 197.48495253 288.53342379 189.78201544 288.52128515 C180.81786624 288.50768374 171.85373947 288.50930137 162.88958257 288.51141848 C146.89879652 288.51461046 130.90805496 288.50292873 114.9172821 288.48335266 C99.388948 288.46434762 83.86066607 288.45726486 68.33232117 288.46284485 C51.4364174 288.46889828 34.54053658 288.46873358 17.64463472 288.45735902 C15.84410381 288.45615168 14.0435729 288.4549457 12.24304199 288.45374107 C11.3570697 288.45313753 10.4710974 288.452534 9.55827746 288.45191217 C3.30491142 288.44802759 -2.94844608 288.44842873 -9.20181274 288.45032692 C-16.81914032 288.4524458 -24.43642214 288.44724815 -32.05373681 288.43271337 C-35.94266138 288.42545379 -39.8315192 288.42140561 -43.72044945 288.42595673 C-47.92977293 288.43076309 -52.13891258 288.42014785 -56.34822083 288.40786743 C-57.58643034 288.41164676 -58.82463986 288.41542608 -60.10037088 288.41931993 C-61.22266391 288.41348773 -62.34495694 288.40765554 -63.50125885 288.40164661 C-64.47361528 288.40077984 -65.44597171 288.39991306 -66.44779348 288.39902002 C-68.87519836 288.14717102 -68.87519836 288.14717102 -71.87519836 286.14717102 C-72.18769836 282.64717102 -72.18769836 282.64717102 -71.87519836 279.14717102 C-69.08009487 276.35206752 -67.3229243 276.87168459 -63.40596008 276.82832336 C-62.74242523 276.81827774 -62.07889038 276.80823212 -61.39524841 276.79788208 C-59.19846985 276.76695114 -57.00181367 276.7499879 -54.80488586 276.73310852 C-53.28315673 276.71440479 -51.76143805 276.69483198 -50.23973083 276.67442322 C-46.23176731 276.62301178 -42.22377013 276.58343453 -38.21565247 276.54627991 C-33.40811137 276.4992685 -28.60073846 276.43763226 -23.79333496 276.37843323 C-16.48735697 276.29011112 -9.181413 276.22042594 -1.87519836 276.14717102 C-1.87519836 265.58717102 -1.87519836 255.02717102 -1.87519836 244.14717102 C-4.18519836 243.81717102 -6.49519836 243.48717102 -8.87519836 243.14717102 C-13.17357343 240.75000031 -16.80229095 238.2913299 -18.44190121 233.48644638 C-19.04480227 230.23151709 -19.0091667 227.01625056 -18.99545288 223.71876526 C-18.99630731 222.96805748 -18.99716173 222.2173497 -18.99804205 221.44389319 C-18.99968973 218.92731833 -18.99418709 216.41081006 -18.98872375 213.89424133 C-18.9884417 212.0907186 -18.98859997 210.28719576 -18.98916626 208.4836731 C-18.98945353 203.58529582 -18.98356805 198.68694295 -18.9765923 193.78857136 C-18.97034718 188.67029252 -18.96975405 183.55201314 -18.96856689 178.43373108 C-18.96545701 168.74050863 -18.95724821 159.04729745 -18.9472174 149.35407996 C-18.93604566 138.31913217 -18.93054314 127.28418385 -18.92552197 116.24923182 C-18.91506533 93.54853864 -18.89747249 70.84785546 -18.87519836 48.14717102 C-21.60584783 48.23447955 -24.33336026 48.34139226 -27.06269836 48.45967102 C-27.83162415 48.48222961 -28.60054993 48.50478821 -29.39277649 48.5280304 C-33.96834981 48.74404459 -37.17001368 49.17621644 -40.87519836 52.14717102 C-41.68581797 54.400566 -41.68581797 54.400566 -41.68769836 56.83467102 C-41.75924133 58.0470343 -41.75924133 58.0470343 -41.83222961 59.28388977 C-41.85349915 60.20621399 -41.85349915 60.20621399 -41.87519836 61.14717102 C-41.25644836 61.27092102 -40.63769836 61.39467102 -40.00019836 61.52217102 C-37.87519836 62.14717102 -37.87519836 62.14717102 -35.87519836 64.14717102 C-35.61450195 66.15179443 -35.61450195 66.15179443 -35.60054016 68.6410675 C-35.58624214 70.03777931 -35.58624214 70.03777931 -35.57165527 71.46270752 C-35.57256668 72.47104141 -35.57347809 73.47937531 -35.57441711 74.51826477 C-35.57013199 75.55153397 -35.56584686 76.58480316 -35.56143188 77.64938354 C-35.55568153 79.83752204 -35.55519349 82.02567965 -35.55952454 84.21382141 C-35.56268228 87.56758661 -35.53924127 90.92046826 -35.51387024 94.27412415 C-35.51159716 96.3971699 -35.51089379 98.52021804 -35.51191711 100.64326477 C-35.50270737 101.64957443 -35.49349762 102.65588409 -35.48400879 103.69268799 C-35.49023758 104.62698135 -35.49646637 105.56127472 -35.50288391 106.52388 C-35.50225449 107.34613571 -35.50162506 108.16839142 -35.50097656 109.01556396 C-35.96326734 111.64882127 -36.78429851 112.53115358 -38.87519836 114.14717102 C-40.82051086 114.53535461 -40.82051086 114.53535461 -43.00019836 114.54560852 C-43.78910461 114.54947571 -44.57801086 114.5533429 -45.39082336 114.55732727 C-46.62058899 114.53992493 -46.62058899 114.53992493 -47.87519836 114.52217102 C-49.10496399 114.53957336 -49.10496399 114.53957336 -50.35957336 114.55732727 C-51.14847961 114.55346008 -51.93738586 114.5495929 -52.75019836 114.54560852 C-53.46949524 114.54222473 -54.18879211 114.53884094 -54.92988586 114.53535461 C-57.48649779 114.02518732 -58.26176848 113.175867 -59.87519836 111.14717102 C-60.25614929 109.02229309 -60.25614929 109.02229309 -60.26338196 106.53974915 C-60.27283844 105.60868347 -60.28229492 104.6776178 -60.29203796 103.71833801 C-60.28596527 102.71516541 -60.27989258 101.7119928 -60.27363586 100.67842102 C-60.27794113 99.13063965 -60.27794113 99.13063965 -60.28233337 97.55158997 C-60.28437537 95.36941479 -60.27883607 93.18722137 -60.26631165 91.00508118 C-60.25026041 87.66010202 -60.26615627 84.31633123 -60.28535461 80.97138977 C-60.28337221 78.85289751 -60.27952859 76.73440601 -60.27363586 74.61592102 C-60.27970856 73.61274841 -60.28578125 72.60957581 -60.29203796 71.57600403 C-60.28258148 70.64493835 -60.273125 69.71387268 -60.26338196 68.7545929 C-60.26099518 67.93535339 -60.2586084 67.11611389 -60.25614929 66.27204895 C-59.77726369 63.60090848 -59.08556226 62.69957358 -56.87519836 61.14717102 C-55.55519836 61.14717102 -54.23519836 61.14717102 -52.87519836 61.14717102 C-52.92160461 60.3505304 -52.96801086 59.55388977 -53.01582336 58.73310852 C-53.38081135 48.01810398 -53.38081135 48.01810398 -48.87519836 43.14717102 C-43.30930185 37.73170414 -37.30764423 36.91060514 -29.86152649 36.97138977 C-29.06166321 36.98814758 -28.26179993 37.0049054 -27.43769836 37.02217102 C-26.19729797 37.03570618 -26.19729797 37.03570618 -24.93183899 37.04951477 C-22.91283128 37.0728559 -20.8939748 37.10871814 -18.87519836 37.14717102 C-18.89090881 36.4620343 -18.90661926 35.77689758 -18.92280579 35.07099915 C-18.98564019 31.92980899 -19.02434186 28.78875163 -19.06269836 25.64717102 C-19.08783508 24.56951477 -19.1129718 23.49185852 -19.13887024 22.38154602 C-19.19825046 15.88930895 -18.73675902 11.01303051 -15.87519836 5.14717102 C-10.90888189 0.30501245 -6.65239503 -0.00161064 0 0 Z M39.12480164 244.14717102 C38.79480164 255.03717102 38.46480164 265.92717102 38.12480164 277.14717102 C73.10480164 277.14717102 108.08480164 277.14717102 144.12480164 277.14717102 C143.79480164 266.25717102 143.46480164 255.36717102 143.12480164 244.14717102 C108.80480164 244.14717102 74.48480164 244.14717102 39.12480164 244.14717102 Z " fill="#ED8600" transform="translate(248.8751983642578,173.8528289794922)"/>
<path d="M0 0 C1.0874565 -0.00085442 2.17491299 -0.00170885 3.29532272 -0.00258917 C6.90953023 -0.00422559 10.52369049 0.00124711 14.13789368 0.00672913 C16.74046833 0.00701142 19.34304307 0.00685244 21.94561768 0.00628662 C27.53358123 0.00576426 33.12153304 0.0088809 38.70949364 0.01452446 C46.78857805 0.02267859 54.86765682 0.02525868 62.9467449 0.02651245 C76.05701385 0.02869684 89.16727655 0.03534026 102.27754211 0.04481506 C115.00703399 0.05400507 127.73652415 0.06107812 140.46601868 0.06532288 C141.25169555 0.0655856 142.03737243 0.06584832 142.84685769 0.06611901 C146.78867551 0.06742412 150.73049334 0.06868781 154.67231119 0.06993091 C187.33312513 0.08028442 219.99393142 0.09788601 252.65473938 0.12025452 C252.70923395 2.3217973 252.74775413 4.52373843 252.77973938 6.72572327 C252.8029425 7.9518634 252.82614563 9.17800354 252.85005188 10.44129944 C252.37747862 19.34280759 248.04454944 26.79725921 241.97505188 33.14369202 C233.94155897 39.98703783 226.32122129 42.26972975 216.01390076 42.26742554 C215.13266914 42.27110223 214.25143753 42.27477891 213.34350193 42.27856702 C210.38490462 42.28959728 207.42634245 42.29344654 204.46772766 42.29725647 C202.34881987 42.30352147 200.22991318 42.3101683 198.11100769 42.31716919 C192.35069864 42.33457188 186.59039788 42.34512834 180.83006907 42.35337472 C177.2325606 42.35852502 173.63505471 42.36460065 170.03754807 42.37088585 C158.78538478 42.38993343 147.53322806 42.40416712 136.28105175 42.41249782 C123.28489855 42.42227835 110.2889153 42.44862108 97.292822 42.48899871 C87.25111562 42.51912907 77.20945805 42.53396365 67.16770732 42.53727883 C61.16812086 42.53963224 55.16871606 42.54863102 49.16917801 42.57374001 C43.52700441 42.59697264 37.88513272 42.60127325 32.24292374 42.59097862 C30.1716817 42.59048203 28.10042503 42.59683861 26.02922821 42.61053467 C23.20230331 42.62818308 20.37647029 42.62118217 17.54954529 42.60800171 C16.31918633 42.62445558 16.31918633 42.62445558 15.06397164 42.64124185 C9.79580093 42.58190857 6.85261272 41.57500845 2.65473938 38.12025452 C-1.34526062 33.69920189 -1.34526062 33.69920189 -1.34526062 31.12025452 C-21.11627075 33.24236985 -21.11627075 33.24236985 -40.34526062 38.12025452 C-40.98866394 38.33021057 -41.63206726 38.54016663 -42.29496765 38.75648499 C-73.47133577 49.11850741 -99.5609328 71.73215155 -114.34135437 101.06117249 C-122.12270555 117.02126874 -127.36088354 133.80484646 -127.53813171 151.70448303 C-127.5463092 152.42738525 -127.55448669 153.15028748 -127.56291199 153.89509583 C-127.58752167 156.26310944 -127.60421094 158.63106452 -127.61869812 160.99916077 C-127.62668364 162.21946141 -127.62668364 162.21946141 -127.63483047 163.4644146 C-127.66144491 167.76366606 -127.68086404 172.06288954 -127.69535828 176.36219788 C-127.70873321 179.91128606 -127.7366671 183.45980416 -127.77738953 187.00868225 C-127.82671741 191.30917439 -127.85147725 195.60914727 -127.85858536 199.9099102 C-127.86528876 201.54337694 -127.88048724 203.17683246 -127.90447617 204.8101368 C-127.93615628 207.09584626 -127.93616262 209.37954849 -127.92875671 211.66542053 C-127.93684357 212.96335037 -127.94493042 214.26128021 -127.95326233 215.59854126 C-127.15597537 220.21664681 -125.51083509 221.72632311 -122.34526062 225.12025452 C-118.839966 232.79565063 -117.0580536 241.22433694 -114.89604187 249.36244202 C-114.4746234 250.93812892 -114.05292181 252.51374012 -113.63095093 254.08927917 C-112.75187309 257.37498027 -111.8755248 260.66139285 -111.00126648 263.94837952 C-109.87924842 268.16637797 -108.75141678 272.38279519 -107.62170124 276.59873772 C-106.75248732 279.84433481 -105.88578286 283.09059766 -105.01990318 286.33708572 C-104.60469485 287.89303638 -104.18882507 289.44881068 -103.77228737 291.00440598 C-103.1929777 293.16981266 -102.61692068 295.33605793 -102.04179382 297.50257874 C-101.71330948 298.73531525 -101.38482513 299.96805176 -101.04638672 301.23814392 C-100.34526062 304.12025452 -100.34526062 304.12025452 -100.34526062 306.12025452 C-99.46100403 306.11137207 -98.57674744 306.10248962 -97.66569519 306.09333801 C-89.30947101 306.0130026 -80.95337759 305.95219405 -72.59685516 305.91300583 C-68.30123341 305.89218099 -64.00593227 305.86395757 -59.710495 305.8184967 C-55.56075921 305.77485554 -51.41133072 305.75107907 -47.26138306 305.74074554 C-45.68260871 305.73338679 -44.10385011 305.719017 -42.52520752 305.69733429 C-25.16528934 305.4684999 -25.16528934 305.4684999 -18.80851746 311.60334778 C-13.26778869 317.85073071 -14.34526062 321.01017826 -14.34526062 330.12025452 C-23.25526062 330.12025452 -32.16526062 330.12025452 -41.34526062 330.12025452 C-41.34526062 355.53025452 -41.34526062 380.94025452 -41.34526062 407.12025452 C-48.27526062 407.12025452 -55.20526062 407.12025452 -62.34526062 407.12025452 C-62.34526062 381.71025452 -62.34526062 356.30025452 -62.34526062 330.12025452 C-80.82526062 330.12025452 -99.30526062 330.12025452 -118.34526062 330.12025452 C-125.34526062 306.12025452 -125.34526062 306.12025452 -127.34526062 298.12025452 C-127.67526062 321.55025452 -128.00526062 344.98025452 -128.34526062 369.12025452 C-123.06526062 369.12025452 -117.78526062 369.12025452 -112.34526062 369.12025452 C-104.88419142 372.30364404 -103.91678888 374.8058093 -99.34526062 382.12025452 C-99.34526062 390.37025452 -99.34526062 398.62025452 -99.34526062 407.12025452 C-129.04526062 407.12025452 -158.74526062 407.12025452 -189.34526062 407.12025452 C-189.34526062 383.12025452 -189.34526062 383.12025452 -185.34526062 375.12025452 C-182.84526062 372.74525452 -182.84526062 372.74525452 -180.34526062 371.12025452 C-179.81416687 370.75931702 -179.28307312 370.39837952 -178.73588562 370.02650452 C-175.06415353 368.63460608 -171.48362448 368.91142578 -167.59526062 368.99525452 C-166.80248718 369.00427795 -166.00971375 369.01330139 -165.19291687 369.02259827 C-163.24356781 369.0460844 -161.29437487 369.08195314 -159.34526062 369.12025452 C-159.348026 367.96179583 -159.35079138 366.80333714 -159.35364056 365.60977364 C-159.41877266 338.04049117 -159.4681612 310.47121648 -159.49845661 282.90187282 C-159.50220822 279.50021997 -159.50609124 276.09856728 -159.51005554 272.69691467 C-159.51084247 272.01977609 -159.5116294 271.34263751 -159.51244018 270.64497958 C-159.52545403 259.7157516 -159.54908541 248.7865715 -159.57671901 237.85737182 C-159.60488565 226.62270607 -159.62123634 215.38806403 -159.6275261 204.1533612 C-159.6314217 197.85154844 -159.6405152 191.54984388 -159.66245079 185.24806595 C-159.68297186 179.30391138 -159.68906313 173.35990852 -159.68458366 167.41572189 C-159.68540193 165.24632185 -159.69127368 163.07691617 -159.70287704 160.907547 C-159.78606622 144.53698884 -158.59670688 128.83885263 -153.65776062 113.12025452 C-153.40357361 112.29759094 -153.1493866 111.47492737 -152.88749695 110.62733459 C-144.96656624 85.86405375 -131.34535136 64.7674775 -113.34526062 46.12025452 C-112.81247498 45.56337952 -112.27968933 45.00650452 -111.73075867 44.43275452 C-100.63794861 33.05583541 -87.44202863 24.31211708 -73.34526062 17.12025452 C-72.74036804 16.80362854 -72.13547546 16.48700256 -71.51225281 16.16078186 C-49.47004435 4.70911903 -24.6972668 -0.07228844 0 0 Z " fill="#7886BF" transform="translate(197.3452606201172,49.87974548339844)"/>
<path d="M0 0 C67.98 0 135.96 0 206 0 C206 33.33 206 66.66 206 101 C199.77817988 104.73309207 195.97578311 105.1220092 188.83580017 105.16062927 C187.77015967 105.168261 187.77015967 105.168261 186.68299109 105.17604691 C184.30811243 105.19171279 181.93326408 105.20028094 179.55834961 105.20874023 C177.85296438 105.21828354 176.14758106 105.22817491 174.44219971 105.23838806 C168.84560428 105.26972149 163.24899424 105.29003576 157.65234375 105.30859375 C156.69873813 105.31189107 155.74513251 105.31518839 154.76262975 105.31858563 C145.76162985 105.34936674 136.76062649 105.37606156 127.7595892 105.39300442 C116.26694137 105.41489474 104.77476163 105.45684059 93.28230089 105.52644199 C85.19036246 105.57377573 77.0985499 105.59795053 69.00647742 105.6052013 C64.1791654 105.61014372 59.35238151 105.62508988 54.52522087 105.6649456 C49.97860556 105.701991 45.43281611 105.71016344 40.88607788 105.69693947 C39.22530871 105.69699312 37.56450124 105.70716844 35.90387154 105.7286911 C24.99097815 105.86246841 15.53484524 104.78003296 6.97596645 97.20975399 C-15.6525812 73.90038568 0 32.48657907 0 0 Z " fill="#E8E8FE" transform="translate(231,203)"/>
<path d="M0 0 C0.33 0 0.66 0 1 0 C1.09353618 15.52509725 1.16402462 31.05017335 1.20724869 46.57548618 C1.22785392 53.78455093 1.25593517 60.99344037 1.30175781 68.20239258 C1.34168844 74.48740491 1.36744764 80.77229025 1.37635398 87.05742592 C1.38155834 90.38392442 1.39586036 93.70997599 1.42292023 97.03637886 C1.45196236 100.75437065 1.45595547 104.47161027 1.45410156 108.18969727 C1.46848267 109.28661896 1.48286377 110.38354065 1.49768066 111.51370239 C1.46320695 117.90431362 0.8173181 121.8064997 -3 127 C-8.98149719 131.84986258 -16.9843138 131.14700184 -24.31591797 131.12939453 C-25.22241592 131.13114685 -26.12891388 131.13289917 -27.06288147 131.13470459 C-30.03933665 131.13908273 -33.01573178 131.13620087 -35.9921875 131.1328125 C-38.06487031 131.13348635 -40.13755305 131.13445705 -42.2102356 131.13571167 C-46.54250851 131.13718286 -50.87476075 131.13505136 -55.20703125 131.13037109 C-60.77252774 131.12465273 -66.33797623 131.12796973 -71.90347099 131.13394356 C-76.17723964 131.13754657 -80.45099679 131.13641216 -84.72476578 131.13381577 C-86.77817923 131.13314688 -88.83159371 131.13397359 -90.88500595 131.13629532 C-93.74351551 131.13881987 -96.60194562 131.13498505 -99.46044922 131.12939453 C-100.74298836 131.13243088 -100.74298836 131.13243088 -102.05143738 131.13552856 C-107.88573303 131.11426697 -107.88573303 131.11426697 -109 130 C-109.08685603 128.43827255 -109.10702219 126.87270656 -109.09765625 125.30859375 C-109.09443359 124.36435547 -109.09121094 123.42011719 -109.08789062 122.44726562 C-109.07951172 121.45404297 -109.07113281 120.46082031 -109.0625 119.4375 C-109.05798828 118.44041016 -109.05347656 117.44332031 -109.04882812 116.41601562 C-109.03700007 113.94395151 -109.02051849 111.47200482 -109 109 C-108.13721436 108.98541748 -107.27442871 108.97083496 -106.38549805 108.95581055 C-103.18150353 108.89472246 -99.97815375 108.82056451 -96.7746582 108.73754883 C-95.38870623 108.70431451 -94.00261939 108.67627774 -92.61645508 108.65356445 C-90.62293157 108.61999383 -88.62978259 108.56612 -86.63671875 108.51171875 C-85.43748779 108.48553467 -84.23825684 108.45935059 -83.00268555 108.43237305 C-80.02248156 108.23659616 -80.02248156 108.23659616 -78.07348633 106.63208008 C-76.73577288 104.9582995 -76.73577288 104.9582995 -77.1875 102.375 C-77.74644234 99.83447997 -77.74644234 99.83447997 -80 99 C-82.17674783 98.84530633 -84.3578348 98.74997894 -86.5390625 98.68359375 C-87.84101563 98.64169922 -89.14296875 98.59980469 -90.484375 98.55664062 C-91.86458045 98.51682701 -93.24478883 98.47711478 -94.625 98.4375 C-96.01303415 98.39430593 -97.40105528 98.35069135 -98.7890625 98.30664062 C-102.19260256 98.20028 -105.59621778 98.09825286 -109 98 C-109 95.36 -109 92.72 -109 90 C-107.35016113 89.97812622 -107.35016113 89.97812622 -105.66699219 89.95581055 C-101.58153977 89.8977853 -97.49663609 89.82055294 -93.41162109 89.73754883 C-91.64445917 89.70431931 -89.87719161 89.67628118 -88.10986328 89.65356445 C-85.56757649 89.61998169 -83.02625592 89.56766549 -80.484375 89.51171875 C-79.69569031 89.50532883 -78.90700562 89.4989389 -78.09442139 89.49235535 C-73.81672975 89.37800392 -71.0946442 89.09104578 -68 86 C-68.37904208 82.70924004 -68.37904208 82.70924004 -70 80 C-72.88231182 79.83977631 -75.7439792 79.7403842 -78.62890625 79.68359375 C-79.39456909 79.66494263 -80.16023193 79.6462915 -80.94909668 79.6270752 C-83.82010932 79.55857255 -86.69131933 79.49855496 -89.5625 79.4375 C-95.976875 79.293125 -102.39125 79.14875 -109 79 C-109 59.86 -109 40.72 -109 21 C-102.82410156 20.96261719 -96.64820313 20.92523438 -90.28515625 20.88671875 C-86.36130077 20.85642548 -82.43748991 20.82526871 -78.51367188 20.79101562 C-72.29225978 20.73678743 -66.07093593 20.68567357 -59.84936523 20.65356445 C-54.83065899 20.62746258 -49.81225081 20.58701159 -44.79372978 20.53681374 C-42.88372964 20.5201915 -40.973678 20.50864842 -39.0636158 20.50238609 C-36.3781152 20.4926943 -33.6933692 20.46457516 -31.00805664 20.43237305 C-29.83632149 20.43452568 -29.83632149 20.43452568 -28.64091492 20.4367218 C-21.1657907 20.31081667 -13.69510049 18.35969009 -7.640625 13.8046875 C-4.07189495 9.87908444 -2.09873318 4.82016741 0 0 Z " fill="#F79A00" transform="translate(449,287)"/>
<path d="M0 0 C0.8109568 -0.00367669 1.6219136 -0.00735338 2.45744485 -0.01114148 C5.18421662 -0.02218496 7.91095029 -0.02602326 10.63774109 -0.02983093 C12.58901592 -0.03609501 14.54028956 -0.04274176 16.49156189 -0.04974365 C21.79946491 -0.06715674 27.10735893 -0.07770595 32.41528344 -0.08594918 C35.73019775 -0.09109798 39.04510926 -0.09717372 42.36002159 -0.10346031 C52.72799014 -0.12251203 63.09595155 -0.13674402 73.46393424 -0.14507228 C85.43906489 -0.15484996 97.41401095 -0.1811835 109.38907653 -0.22157317 C118.6409605 -0.25170936 127.89279148 -0.26653873 137.14472359 -0.26985329 C142.67260846 -0.27220633 148.20029613 -0.28120006 153.72812843 -0.30631447 C158.92789815 -0.3295569 164.12734028 -0.3338438 169.32714844 -0.32355309 C171.23552221 -0.32305671 173.14391191 -0.32940709 175.05223656 -0.34310913 C177.65810261 -0.36077275 180.26278592 -0.35374953 182.86865234 -0.34057617 C183.62342765 -0.35154542 184.37820295 -0.36251466 185.15585023 -0.37381631 C191.56749465 -0.29558758 195.0806065 2.08266931 199.48417664 6.52998352 C202.07083964 12.23295958 201.54207943 17.84576008 201.37480164 24.02217102 C201.35675476 25.28287415 201.33870789 26.54357727 201.32011414 27.84248352 C201.27310893 30.94482716 201.2074084 34.04560482 201.12480164 37.14717102 C202.33136414 37.1239679 203.53792664 37.10076477 204.78105164 37.07685852 C206.39562872 37.05808437 208.01021258 37.03988595 209.62480164 37.02217102 C210.41628601 37.00541321 211.20777039 36.9886554 212.02323914 36.97138977 C218.56331162 36.91778262 225.05833924 37.27113633 230.43730164 41.39717102 C235.0375632 46.10441541 236.28726849 49.51355335 236.31230164 56.02217102 C236.26445505 57.73097754 236.20683488 59.43966419 236.12480164 61.14717102 C237.30042664 61.23998352 237.30042664 61.23998352 238.49980164 61.33467102 C241.12480164 62.14717102 241.12480164 62.14717102 242.27006531 64.10420227 C243.452573 68.31407827 243.43010626 72.29353312 243.42558289 76.64717102 C243.42986801 77.5604718 243.43415314 78.47377258 243.43856812 79.41474915 C243.44429809 81.34117302 243.44482152 83.26761853 243.44047546 85.19404602 C243.43731243 88.13712991 243.46080181 91.07921105 243.48612976 94.02217102 C243.48840262 95.89716976 243.48910631 97.77217119 243.48808289 99.64717102 C243.49729263 100.52437805 243.50650238 101.40158508 243.51599121 102.30537415 C243.48071252 106.97436762 243.40800249 110.50735926 240.12480164 114.14717102 C238.07182312 114.74653625 238.07182312 114.74653625 235.74589539 114.70576477 C234.90736023 114.69867493 234.06882507 114.69158508 233.20487976 114.6842804 C232.33282898 114.6514093 231.4607782 114.61853821 230.56230164 114.58467102 C229.68638367 114.57887024 228.8104657 114.57306946 227.90800476 114.5670929 C221.41985535 114.44222474 221.41985535 114.44222474 219.12480164 112.14717102 C218.86410522 110.10458374 218.86410522 110.10458374 218.85014343 107.56147766 C218.84061142 106.6103157 218.83107941 105.65915375 218.82125854 104.6791687 C218.82262566 103.13385719 218.82262566 103.13385719 218.82402039 101.55732727 C218.81973526 100.50186203 218.81545013 99.44639679 218.81103516 98.35894775 C218.80528459 96.12373065 218.80479692 93.88849484 218.80912781 91.65327454 C218.81228558 88.22708797 218.78884458 84.80176622 218.76347351 81.37568665 C218.76120044 79.20706795 218.76049706 77.03844692 218.76152039 74.86982727 C218.75231064 73.84164383 218.74310089 72.81346039 218.73361206 71.75411987 C218.74295525 70.3226487 218.74295525 70.3226487 218.75248718 68.86225891 C218.75154305 67.60222801 218.75154305 67.60222801 218.75057983 66.31674194 C219.21279246 63.63703953 219.93881688 62.73035495 222.12480164 61.14717102 C223.11480164 61.14717102 224.10480164 61.14717102 225.12480164 61.14717102 C224.89649463 59.51898156 224.64136587 57.89453612 224.37480164 56.27217102 C224.16597351 54.91478821 224.16597351 54.91478821 223.95292664 53.52998352 C223.36523995 51.03989727 223.36523995 51.03989727 221.34355164 50.02412415 C219.02903603 49.10932 217.27373988 48.83926837 214.79667664 48.73310852 C213.99745789 48.69443665 213.19823914 48.65576477 212.37480164 48.61592102 C211.54980164 48.58498352 210.72480164 48.55404602 209.87480164 48.52217102 C209.03433289 48.48349915 208.19386414 48.44482727 207.32792664 48.40498352 C205.26056782 48.31101267 203.19271537 48.22801538 201.12480164 48.14717102 C201.14478714 49.32868744 201.14478714 49.32868744 201.16517639 50.53407288 C201.28606986 58.00605638 201.37708492 65.47755685 201.43567467 72.95026779 C201.46681077 76.79090805 201.50895019 80.6307313 201.57743835 84.47090149 C201.64327616 88.18628556 201.67864042 91.90089067 201.69406509 95.61681366 C201.70503766 97.02489211 201.72646089 98.43293438 201.75918198 99.84067535 C201.98799182 110.10545278 200.61799663 119.14333484 193.43836975 126.9903717 C189.78954034 130.14717102 189.78954034 130.14717102 188.12480164 130.14717102 C188.12480164 96.81717102 188.12480164 63.48717102 188.12480164 29.14717102 C120.14480164 29.14717102 52.16480164 29.14717102 -17.87519836 29.14717102 C-17.87519836 55.54717102 -17.87519836 81.94717102 -17.87519836 109.14717102 C-18.20519836 109.14717102 -18.53519836 109.14717102 -18.87519836 109.14717102 C-18.87519836 89.01717102 -18.87519836 68.88717102 -18.87519836 48.14717102 C-34.41158362 47.74398073 -34.41158362 47.74398073 -40.87519836 52.14717102 C-41.68581797 54.400566 -41.68581797 54.400566 -41.68769836 56.83467102 C-41.75924133 58.0470343 -41.75924133 58.0470343 -41.83222961 59.28388977 C-41.85349915 60.20621399 -41.85349915 60.20621399 -41.87519836 61.14717102 C-41.25644836 61.27092102 -40.63769836 61.39467102 -40.00019836 61.52217102 C-37.87519836 62.14717102 -37.87519836 62.14717102 -35.87519836 64.14717102 C-35.61450195 66.15179443 -35.61450195 66.15179443 -35.60054016 68.6410675 C-35.58624214 70.03777931 -35.58624214 70.03777931 -35.57165527 71.46270752 C-35.57256668 72.47104141 -35.57347809 73.47937531 -35.57441711 74.51826477 C-35.57013199 75.55153397 -35.56584686 76.58480316 -35.56143188 77.64938354 C-35.55568153 79.83752204 -35.55519349 82.02567965 -35.55952454 84.21382141 C-35.56268228 87.56758661 -35.53924127 90.92046826 -35.51387024 94.27412415 C-35.51159716 96.3971699 -35.51089379 98.52021804 -35.51191711 100.64326477 C-35.50270737 101.64957443 -35.49349762 102.65588409 -35.48400879 103.69268799 C-35.49023758 104.62698135 -35.49646637 105.56127472 -35.50288391 106.52388 C-35.50225449 107.34613571 -35.50162506 108.16839142 -35.50097656 109.01556396 C-35.96326734 111.64882127 -36.78429851 112.53115358 -38.87519836 114.14717102 C-40.82051086 114.53535461 -40.82051086 114.53535461 -43.00019836 114.54560852 C-43.78910461 114.54947571 -44.57801086 114.5533429 -45.39082336 114.55732727 C-46.62058899 114.53992493 -46.62058899 114.53992493 -47.87519836 114.52217102 C-49.10496399 114.53957336 -49.10496399 114.53957336 -50.35957336 114.55732727 C-51.14847961 114.55346008 -51.93738586 114.5495929 -52.75019836 114.54560852 C-53.46949524 114.54222473 -54.18879211 114.53884094 -54.92988586 114.53535461 C-57.48649779 114.02518732 -58.26176848 113.175867 -59.87519836 111.14717102 C-60.25614929 109.02229309 -60.25614929 109.02229309 -60.26338196 106.53974915 C-60.27283844 105.60868347 -60.28229492 104.6776178 -60.29203796 103.71833801 C-60.28596527 102.71516541 -60.27989258 101.7119928 -60.27363586 100.67842102 C-60.27650604 99.64656677 -60.27937622 98.61471252 -60.28233337 97.55158997 C-60.28437537 95.36941479 -60.27883607 93.18722137 -60.26631165 91.00508118 C-60.25026041 87.66010202 -60.26615627 84.31633123 -60.28535461 80.97138977 C-60.28337221 78.85289751 -60.27952859 76.73440601 -60.27363586 74.61592102 C-60.27970856 73.61274841 -60.28578125 72.60957581 -60.29203796 71.57600403 C-60.28258148 70.64493835 -60.273125 69.71387268 -60.26338196 68.7545929 C-60.26099518 67.93535339 -60.2586084 67.11611389 -60.25614929 66.27204895 C-59.77726369 63.60090848 -59.08556226 62.69957358 -56.87519836 61.14717102 C-55.55519836 61.14717102 -54.23519836 61.14717102 -52.87519836 61.14717102 C-52.92160461 60.3505304 -52.96801086 59.55388977 -53.01582336 58.73310852 C-53.38081135 48.01810398 -53.38081135 48.01810398 -48.87519836 43.14717102 C-43.30930185 37.73170414 -37.30764423 36.91060514 -29.86152649 36.97138977 C-29.06166321 36.98814758 -28.26179993 37.0049054 -27.43769836 37.02217102 C-26.19729797 37.03570618 -26.19729797 37.03570618 -24.93183899 37.04951477 C-22.91283128 37.0728559 -20.8939748 37.10871814 -18.87519836 37.14717102 C-18.89090881 36.4620343 -18.90661926 35.77689758 -18.92280579 35.07099915 C-18.98564019 31.92980899 -19.02434186 28.78875163 -19.06269836 25.64717102 C-19.08783508 24.56951477 -19.1129718 23.49185852 -19.13887024 22.38154602 C-19.19825046 15.88930895 -18.73675902 11.01303051 -15.87519836 5.14717102 C-10.90888189 0.30501245 -6.65239503 -0.00161064 0 0 Z " fill="#F69D0C" transform="translate(248.8751983642578,173.8528289794922)"/>
<path d="M0 0 C84.15 0 168.3 0 255 0 C255 14.04374155 253.88128539 23.0262225 244.3203125 33.0234375 C236.28681959 39.86678331 228.66648191 42.14947523 218.35916138 42.14717102 C217.03731396 42.15268605 217.03731396 42.15268605 215.68876255 42.1583125 C212.73016524 42.16934276 209.77160307 42.17319203 206.81298828 42.17700195 C204.69408049 42.18326695 202.5751738 42.18991378 200.45626831 42.19691467 C194.69595926 42.21431737 188.9356585 42.22487383 183.17532969 42.2331202 C179.57782122 42.2382705 175.98031533 42.24434613 172.38280869 42.25063133 C161.1306454 42.26967891 149.87848868 42.2839126 138.62631238 42.2922433 C125.63015917 42.30202383 112.63417592 42.32836657 99.63808262 42.36874419 C89.59637624 42.39887456 79.55471867 42.41370913 69.51296794 42.41702431 C63.51338148 42.41937772 57.51397668 42.42837651 51.51443863 42.45348549 C45.87226503 42.47671813 40.23039334 42.48101873 34.58818436 42.47072411 C32.51694232 42.47022751 30.44568565 42.47658409 28.37448883 42.49028015 C25.54756393 42.50792856 22.72173091 42.50092765 19.89480591 42.48774719 C18.66444695 42.50420106 18.66444695 42.50420106 17.40923226 42.52098733 C12.13912168 42.4616322 9.20516198 41.44693766 5 38 C-4.49862738 27.98793331 0 12.86474549 0 0 Z " fill="#5C679D" transform="translate(195,50)"/>
<path d="M0 0 C32.01 0 64.02 0 97 0 C97.20054405 25.08583197 97.20054405 25.08583197 97.24414062 35.75585938 C97.27406281 43.04469942 97.30950922 50.33322627 97.37719727 57.62182617 C97.4314124 63.4962476 97.46139866 69.37033334 97.47438622 75.24498558 C97.4836449 77.48938472 97.50172444 79.7337649 97.52865028 81.97802162 C97.56480018 85.1150689 97.56995113 88.25071836 97.56762695 91.38793945 C97.58560333 92.32157822 97.60357971 93.25521698 97.62210083 94.21714783 C97.60307231 96.58128402 97.53887308 98.69848032 97 101 C91.87611115 105.69810858 85.02410809 105.14322036 78.44604492 105.11352539 C77.58308209 105.11364593 76.72011927 105.11376646 75.83100605 105.11389065 C73.04746707 105.11314638 70.26399569 105.1055403 67.48046875 105.09765625 C65.75801628 105.09618533 64.03556336 105.09516554 62.31311035 105.09460449 C55.93790007 105.08936905 49.56269937 105.07540781 43.1875 105.0625 C28.935625 105.041875 14.68375 105.02125 0 105 C0 70.35 0 35.7 0 0 Z " fill="#FEFEFE" transform="translate(340,203)"/>
<path d="M0 0 C13.53 0 27.06 0 41 0 C41 10.89 41 21.78 41 33 C75.65 33.33 110.3 33.66 146 34 C145.67 33.01 145.34 32.02 145 31 C144.9045133 28.72813727 144.86926463 26.45355506 144.8671875 24.1796875 C144.86623077 23.52042267 144.86527405 22.86115784 144.86428833 22.18191528 C144.86360895 20.79168604 144.86544633 19.40145359 144.86962891 18.01123047 C144.87499772 15.87590486 144.86966707 13.74078797 144.86328125 11.60546875 C144.86394174 10.25520787 144.8652223 8.90494711 144.8671875 7.5546875 C144.86831543 6.32218262 144.86944336 5.08967773 144.87060547 3.81982422 C145 1 145 1 146 0 C149.02977804 -0.08871273 152.03667022 -0.1151935 155.06640625 -0.09765625 C155.97502914 -0.0962413 156.88365204 -0.09482635 157.81980896 -0.09336853 C160.73407221 -0.08775193 163.64825981 -0.07519665 166.5625 -0.0625 C168.53320202 -0.05748714 170.50390524 -0.05292386 172.47460938 -0.04882812 C177.31643559 -0.03777711 182.15820495 -0.02050138 187 0 C187.02468857 4.5206665 187.04285449 9.0412939 187.05493164 13.56201172 C187.05996552 15.10043013 187.06679308 16.63884375 187.07543945 18.17724609 C187.08754639 20.38640526 187.09323769 22.59550126 187.09765625 24.8046875 C187.10281754 25.49432587 187.10797882 26.18396423 187.11329651 26.89450073 C187.11387171 31.77225659 187.11387171 31.77225659 186 34 C186.84524734 33.99333817 187.69049469 33.98667633 188.56135559 33.97981262 C196.52182444 33.91973475 204.48221729 33.87404257 212.4428606 33.84456348 C216.53565443 33.82889854 220.62826114 33.80764542 224.72094727 33.77368164 C228.66964752 33.74111733 232.61816765 33.72315323 236.56699181 33.71536827 C238.07451908 33.70981946 239.58203636 33.69898405 241.08948708 33.68280983 C243.19895459 33.6610737 245.30767509 33.65803136 247.41723633 33.65942383 C248.61858719 33.65276199 249.81993805 33.64610016 251.05769348 33.63923645 C254 34 254 34 255.88798523 35.36503601 C257.48469945 37.71263995 257.41629055 39.22472964 257 42 C255.81243372 43.63282937 255.81243372 43.63282937 254 45 C251.57259512 45.37489682 251.57259512 45.37489682 248.62606049 45.37473011 C247.50376746 45.38193665 246.38147443 45.3891432 245.22517252 45.39656812 C243.986963 45.38919383 242.74875348 45.38181955 241.47302246 45.3742218 C240.16175558 45.37819621 238.85048869 45.38217061 237.49948645 45.38626546 C233.85206632 45.39688281 230.20489017 45.38870376 226.55748057 45.37751496 C222.62695785 45.36869384 218.69646778 45.3771104 214.76594543 45.38337708 C207.06300142 45.39287935 199.3601509 45.38625277 191.65721381 45.37411413 C182.69306461 45.36051272 173.72893783 45.36213035 164.76478094 45.36424746 C148.77399488 45.36743944 132.78325333 45.35575771 116.79248047 45.33618164 C101.26414637 45.3171766 85.73586443 45.31009384 70.20751953 45.31567383 C53.31161576 45.32172726 36.41573495 45.32156256 19.51983309 45.310188 C17.71930218 45.30898066 15.91877127 45.30777468 14.11824036 45.30657005 C13.23226806 45.30596651 12.34629576 45.30536298 11.43347582 45.30474115 C5.18010979 45.30085657 -1.07324772 45.30125771 -7.32661438 45.3031559 C-14.94394196 45.30527478 -22.56122377 45.30007713 -30.17853844 45.28554235 C-34.06746302 45.27828277 -37.95632083 45.27423459 -41.84525108 45.27878571 C-46.05457456 45.28359206 -50.26371422 45.27297683 -54.47302246 45.26069641 C-56.33033674 45.2663654 -56.33033674 45.2663654 -58.22517252 45.27214891 C-59.90861206 45.26340062 -59.90861206 45.26340062 -61.62606049 45.25447559 C-62.59841691 45.25360882 -63.57077334 45.25274204 -64.57259512 45.251849 C-67 45 -67 45 -70 43 C-70.3125 39.5 -70.3125 39.5 -70 36 C-67.2048965 33.2048965 -65.44772594 33.72451357 -61.53076172 33.68115234 C-60.86722687 33.67110672 -60.20369202 33.6610611 -59.52005005 33.65071106 C-57.32327148 33.61978012 -55.12661531 33.60281688 -52.9296875 33.5859375 C-51.40795837 33.56723377 -49.88623969 33.54766096 -48.36453247 33.5272522 C-44.35656895 33.47584076 -40.34857177 33.43626351 -36.3404541 33.39910889 C-31.53291301 33.35209748 -26.72554009 33.29046124 -21.9181366 33.23126221 C-14.61215861 33.1429401 -7.30621464 33.07325492 0 33 C0 22.11 0 11.22 0 0 Z " fill="#323E66" transform="translate(247,417)"/>
<path d="M0 0 C4.80107048 2.10290004 6.85415632 5.34139635 9 10 C10.88864889 15.63764532 12.37747667 21.36258674 13.86328125 27.1171875 C14.30343782 28.78277253 14.74471494 30.44806181 15.1870575 32.11306763 C16.34162704 36.47223839 17.47964154 40.83556945 18.61456299 45.19989014 C19.54688986 48.77338856 20.49116735 52.3436772 21.4360323 55.91387749 C22.56165545 60.16808546 23.68196551 64.42368478 24.80078125 68.6796875 C25.01466303 69.49270199 25.22854481 70.30571648 25.44890785 71.14336777 C26.04994297 73.43322031 26.6473561 75.72398271 27.2434082 78.01513672 C27.42256775 78.6966832 27.60172729 79.37822968 27.78631592 80.08042908 C29 84.76953367 29 84.76953367 29 87 C29.88425659 86.99111755 30.76851318 86.98223511 31.67956543 86.9730835 C40.03578961 86.89274808 48.39188303 86.83193954 56.74840546 86.79275131 C61.04402721 86.77192647 65.33932835 86.74370305 69.63476562 86.69824219 C73.78450141 86.65460102 77.9339299 86.63082455 82.08387756 86.62049103 C83.66265191 86.61313227 85.24141051 86.59876248 86.8200531 86.57707977 C104.17997128 86.34824538 104.17997128 86.34824538 110.53674316 92.48309326 C116.07747193 98.73047619 115 101.88992375 115 111 C106.09 111 97.18 111 88 111 C88 136.41 88 161.82 88 188 C81.07 188 74.14 188 67 188 C67 162.59 67 137.18 67 111 C48.52 111 30.04 111 11 111 C-0.63708862 71.10141046 -0.63708862 71.10141046 -0.390625 53.90625 C-0.38313721 52.33728773 -0.37745634 50.76831591 -0.37347412 49.19934082 C-0.35841684 45.12877211 -0.31931534 41.05880151 -0.2746582 36.98846436 C-0.23326768 32.81140223 -0.21537101 28.63424063 -0.1953125 24.45703125 C-0.15279469 16.30441721 -0.08479544 8.15228361 0 0 Z " fill="#D59451" transform="translate(68,269)"/>
<path d="M0 0 C1.8828067 -0.02398109 1.8828067 -0.02398109 3.8036499 -0.04844666 C5.17150464 -0.054825 6.53936429 -0.06021722 7.90722656 -0.06469727 C9.31724134 -0.07367055 10.72725517 -0.08279252 12.13726807 -0.09205627 C15.09283761 -0.10853397 18.04829407 -0.11624372 21.00390625 -0.11914062 C24.77451687 -0.12451331 28.54405048 -0.16215019 32.31435776 -0.20788479 C35.22792343 -0.2377683 38.14123373 -0.24486665 41.05493927 -0.24586678 C42.44392055 -0.25004933 43.83290398 -0.26240425 45.22173309 -0.28338432 C53.58824806 -0.3996779 59.35300741 -0.31825372 65.79785156 5.30639648 C70.79785156 13.30639648 70.79785156 13.30639648 70.79785156 38.30639648 C41.09785156 38.30639648 11.39785156 38.30639648 -19.20214844 38.30639648 C-19.20214844 14.30639648 -19.20214844 14.30639648 -15.20214844 6.30639648 C-10.38435777 1.72949535 -6.61690917 0.06377387 0 0 Z " fill="#5C679D" transform="translate(27.2021484375,418.693603515625)"/>
<path d="M0 0 C0.83712524 -0.00137466 1.67425049 -0.00274933 2.53674316 -0.00416565 C3.45168045 -0.00057037 4.36661774 0.0030249 5.3092804 0.00672913 C6.27532196 0.0065831 7.24136353 0.00643707 8.23667908 0.00628662 C11.43448623 0.00698411 14.63223536 0.01476889 17.83003235 0.02259827 C20.0453488 0.02446303 22.26066566 0.02588666 24.47598267 0.02688599 C30.31048214 0.03070659 36.14495677 0.040533 41.97944641 0.05158997 C47.93159143 0.06181389 53.88374046 0.06638571 59.83589172 0.07142639 C71.51754503 0.08215565 83.19917336 0.09974879 94.8808136 0.12025452 C94.8808136 9.36025452 94.8808136 18.60025452 94.8808136 28.12025452 C58.5808136 28.12025452 22.2808136 28.12025452 -15.1191864 28.12025452 C-15.1191864 10.60301314 -15.1191864 10.60301314 -12.1191864 5.12025452 C-8.33849456 1.43407997 -5.24028387 -0.00664168 0 0 Z " fill="#EE8600" transform="translate(245.1191864013672,173.87974548339844)"/>
<path d="M0 0 C3.96 0 7.92 0 12 0 C12.03738281 1.22976562 12.07476562 2.45953125 12.11328125 3.7265625 C12.17897028 5.35940401 12.24541659 6.99221518 12.3125 8.625 C12.33505859 9.43324219 12.35761719 10.24148437 12.38085938 11.07421875 C12.66140798 17.34830584 13.71361665 21.8850954 18.5 26.3125 C22.99884138 29.34921793 27.10940864 29.14372475 32.34181213 29.13371277 C33.20303285 29.13597833 34.06425357 29.13824388 34.95157188 29.14057809 C37.84866883 29.1469278 40.74571911 29.14608809 43.64282227 29.14526367 C45.7156836 29.14825467 47.78854438 29.15165706 49.86140442 29.15544128 C55.50221715 29.16429428 61.14301473 29.16662002 66.78383374 29.16725707 C71.49274034 29.16820574 76.20164339 29.17188378 80.91054863 29.17542917 C92.02475885 29.18357963 103.13896096 29.18601297 114.25317383 29.18530273 C125.71207223 29.18470265 137.17092345 29.19523933 148.62980992 29.2110464 C158.46858872 29.22413423 168.30735213 29.22948607 178.14613956 29.22884732 C184.02172975 29.22859259 189.89727807 29.2314302 195.77285957 29.24202538 C201.30416507 29.25172653 206.83538888 29.25177166 212.36669731 29.24450874 C214.39271031 29.24346522 216.41872845 29.24581195 218.44473267 29.2518692 C221.21968431 29.2596255 223.99435643 29.25492026 226.76930237 29.24723816 C227.56300863 29.25238172 228.3567149 29.25752529 229.17447287 29.26282471 C234.9649951 29.22762576 240.36317399 28.29744389 246 27 C244.52245985 30.12174426 243.27615299 31.90650759 240.5 34 C239.8915625 34.474375 239.283125 34.94875 238.65625 35.4375 C237.34140625 36.2109375 237.34140625 36.2109375 236 37 C235.4346265 37.33309929 234.86925301 37.66619858 234.28674698 38.00939178 C225.13731782 42.50602504 215.06836844 41.56026791 205.13183594 41.51757812 C203.01203939 41.52300366 200.89224662 41.53012874 198.77246094 41.53881836 C193.03720127 41.55699868 187.30223055 41.55000713 181.56696606 41.53730202 C175.55865405 41.52715227 169.55036624 41.53657269 163.54205322 41.54284668 C153.45800344 41.55011507 143.37407101 41.54055419 133.29003906 41.52148438 C121.63259427 41.49969367 109.97542909 41.50678634 98.31799102 41.52879 C88.30161831 41.54693881 78.28532977 41.54950554 68.26894593 41.53903532 C62.28959966 41.53280061 56.31038488 41.53196475 50.33104706 41.54518127 C44.71337271 41.55673232 39.0960594 41.54872736 33.47842407 41.52560425 C31.41686859 41.52031424 29.35528273 41.5218359 27.29373932 41.53065491 C24.48022601 41.54158162 21.66787063 41.52788161 18.85443115 41.50793457 C18.03828457 41.51685746 17.22213798 41.52578034 16.38125968 41.53497362 C9.9012957 41.44582421 6.32665061 39.25874566 1.64941406 34.71801758 C-0.52564848 31.13380039 -0.45714758 28.68601054 -0.390625 24.51171875 C-0.38496521 23.80852005 -0.37930542 23.10532135 -0.37347412 22.3808136 C-0.35119769 20.14899752 -0.30102373 17.91882539 -0.25 15.6875 C-0.22992343 14.16864309 -0.21167468 12.64976084 -0.1953125 11.13085938 C-0.15136357 7.42004455 -0.08239921 3.7101829 0 0 Z " fill="#525D91" transform="translate(196,51)"/>
<path d="M0 0 C4.29 0 8.58 0 13 0 C13 2.64 13 5.28 13 8 C14.80984375 7.96519531 14.80984375 7.96519531 16.65625 7.9296875 C18.27082709 7.91091335 19.88541094 7.89271493 21.5 7.875 C22.29148437 7.85824219 23.08296875 7.84148437 23.8984375 7.82421875 C30.43850998 7.7706116 36.93353761 8.12396531 42.3125 12.25 C46.91276156 16.95724439 48.16246686 20.36638233 48.1875 26.875 C48.13965342 28.58380652 48.08203325 30.29249317 48 32 C49.175625 32.0928125 49.175625 32.0928125 50.375 32.1875 C53 33 53 33 54.14526367 34.95703125 C55.32777136 39.16690725 55.30530463 43.1463621 55.30078125 47.5 C55.30506638 48.41330078 55.3093515 49.32660156 55.31376648 50.26757812 C55.31949645 52.194002 55.32001988 54.12044751 55.31567383 56.046875 C55.31251079 58.98995889 55.33600018 61.93204003 55.36132812 64.875 C55.36360098 66.74999874 55.36430468 68.62500017 55.36328125 70.5 C55.372491 71.37720703 55.38170074 72.25441406 55.39118958 73.15820312 C55.35591089 77.8271966 55.28320085 81.36018824 52 85 C49.94702148 85.59936523 49.94702148 85.59936523 47.62109375 85.55859375 C46.78255859 85.55150391 45.94402344 85.54441406 45.08007812 85.53710938 C43.77200195 85.48780273 43.77200195 85.48780273 42.4375 85.4375 C41.12362305 85.42879883 41.12362305 85.42879883 39.78320312 85.41992188 C33.29505372 85.29505372 33.29505372 85.29505372 31 83 C30.73930359 80.95741272 30.73930359 80.95741272 30.7253418 78.41430664 C30.71104378 76.98756371 30.71104378 76.98756371 30.69645691 75.53199768 C30.69736832 74.50179001 30.69827972 73.47158234 30.69921875 72.41015625 C30.69493362 71.35469101 30.6906485 70.29922577 30.68623352 69.21177673 C30.68048295 66.97655963 30.67999528 64.74132382 30.68432617 62.50610352 C30.68748395 59.07991695 30.66404294 55.6545952 30.63867188 52.22851562 C30.63639881 50.05989693 30.63569542 47.8912759 30.63671875 45.72265625 C30.627509 44.69447281 30.61829926 43.66628937 30.60881042 42.60694885 C30.61503922 41.65263474 30.62126801 40.69832062 30.62768555 39.71508789 C30.62674141 38.45505699 30.62674141 38.45505699 30.6257782 37.16957092 C31.08799082 34.48986851 31.81401524 33.58318393 34 32 C34.99 32 35.98 32 37 32 C36.77169299 30.37181054 36.51656424 28.7473651 36.25 27.125 C36.11078125 26.22007812 35.9715625 25.31515625 35.828125 24.3828125 C35.24043832 21.89272625 35.24043832 21.89272625 33.21875 20.87695312 C30.9042344 19.96214898 29.14893824 19.69209735 26.671875 19.5859375 C25.87265625 19.54726562 25.0734375 19.50859375 24.25 19.46875 C23.425 19.4378125 22.6 19.406875 21.75 19.375 C20.90953125 19.33632812 20.0690625 19.29765625 19.203125 19.2578125 C17.13576618 19.16384164 15.06791373 19.08084436 13 19 C13.01332367 19.78767761 13.02664734 20.57535522 13.04037476 21.38690186 C13.16126823 28.85888536 13.25228329 36.33038583 13.31087303 43.80309677 C13.34200914 47.64373703 13.38414856 51.48356028 13.45263672 55.32373047 C13.51847453 59.03911454 13.55383878 62.75371965 13.56926346 66.46964264 C13.58023603 67.87772109 13.60165926 69.28576336 13.63438034 70.69350433 C13.86319018 80.95828176 12.49319499 89.99616382 5.31356812 97.84320068 C1.66473871 101 1.66473871 101 0 101 C0 67.67 0 34.34 0 0 Z " fill="#E9E9FE" transform="translate(437,203)"/>
<path d="M0 0 C1.24040039 0.01353516 1.24040039 0.01353516 2.50585938 0.02734375 C4.52486708 0.05068488 6.54372356 0.08654712 8.5625 0.125 C8.5625 3.755 8.5625 7.385 8.5625 11.125 C6.80873047 11.18107422 6.80873047 11.18107422 5.01953125 11.23828125 C3.47132325 11.3039628 1.92314758 11.37040939 0.375 11.4375 C-0.39392578 11.46005859 -1.16285156 11.48261719 -1.95507812 11.50585938 C-6.4743548 11.71921578 -9.89094773 12.02176677 -13.4375 15.125 C-14.2481196 17.37839498 -14.2481196 17.37839498 -14.25 19.8125 C-14.32154297 21.02486328 -14.32154297 21.02486328 -14.39453125 22.26171875 C-14.41580078 23.18404297 -14.41580078 23.18404297 -14.4375 24.125 C-13.81875 24.24875 -13.2 24.3725 -12.5625 24.5 C-10.4375 25.125 -10.4375 25.125 -8.4375 27.125 C-8.17680359 29.12962341 -8.17680359 29.12962341 -8.1628418 31.61889648 C-8.14854378 33.01560829 -8.14854378 33.01560829 -8.13395691 34.4405365 C-8.13486832 35.44887039 -8.13577972 36.45720428 -8.13671875 37.49609375 C-8.13243362 38.52936295 -8.1281485 39.56263214 -8.12373352 40.62721252 C-8.11798317 42.81535102 -8.11749512 45.00350863 -8.12182617 47.19165039 C-8.12498391 50.54541559 -8.1015429 53.89829724 -8.07617188 57.25195312 C-8.0738988 59.37499888 -8.07319543 61.49804702 -8.07421875 63.62109375 C-8.065009 64.62740341 -8.05579926 65.63371307 -8.04631042 66.67051697 C-8.05253922 67.60481033 -8.05876801 68.5391037 -8.06518555 69.50170898 C-8.06455612 70.32396469 -8.0639267 71.1462204 -8.0632782 71.99339294 C-8.52556898 74.62665025 -9.34660015 75.50898256 -11.4375 77.125 C-13.3828125 77.51318359 -13.3828125 77.51318359 -15.5625 77.5234375 C-16.35140625 77.52730469 -17.1403125 77.53117187 -17.953125 77.53515625 C-19.18289062 77.51775391 -19.18289062 77.51775391 -20.4375 77.5 C-21.66726562 77.51740234 -21.66726562 77.51740234 -22.921875 77.53515625 C-23.71078125 77.53128906 -24.4996875 77.52742188 -25.3125 77.5234375 C-26.03179687 77.52005371 -26.75109375 77.51666992 -27.4921875 77.51318359 C-30.04879943 77.0030163 -30.82407012 76.15369598 -32.4375 74.125 C-32.81845093 72.00012207 -32.81845093 72.00012207 -32.82568359 69.51757812 C-32.83514008 68.58651245 -32.84459656 67.65544678 -32.8543396 66.69616699 C-32.84826691 65.69299438 -32.84219421 64.68982178 -32.8359375 63.65625 C-32.83880768 62.62439575 -32.84167786 61.5925415 -32.84463501 60.52941895 C-32.84667701 58.34724377 -32.84113771 56.16505035 -32.82861328 53.98291016 C-32.81256205 50.637931 -32.82845791 47.29416021 -32.84765625 43.94921875 C-32.84567384 41.83072649 -32.84183022 39.71223499 -32.8359375 37.59375 C-32.84201019 36.59057739 -32.84808289 35.58740479 -32.8543396 34.55383301 C-32.84488312 33.62276733 -32.83542664 32.69170166 -32.82568359 31.73242188 C-32.82329681 30.91318237 -32.82091003 30.09394287 -32.81845093 29.24987793 C-32.33956533 26.57873745 -31.64786389 25.67740256 -29.4375 24.125 C-28.1175 24.125 -26.7975 24.125 -25.4375 24.125 C-25.48390625 23.32835937 -25.5303125 22.53171875 -25.578125 21.7109375 C-25.94311299 10.99593296 -25.94311299 10.99593296 -21.4375 6.125 C-15.18780042 0.04421122 -8.24990896 -0.17284257 0 0 Z " fill="#B44500" transform="translate(221.4375,210.875)"/>
<path d="M0 0 C1.15822266 -0.00483398 1.15822266 -0.00483398 2.33984375 -0.00976562 C6.22431666 0.02726141 8.20317851 0.11461901 11.5 2.3125 C12.49727024 5.05157877 12.63374073 7.64560835 12.66113281 10.54272461 C12.67074036 11.36715561 12.6803479 12.19158661 12.69024658 13.04100037 C12.69449646 13.92336868 12.69874634 14.805737 12.703125 15.71484375 C12.70882507 16.62955948 12.71452515 17.54427521 12.72039795 18.48670959 C12.72983216 20.41910653 12.73637565 22.35151944 12.74023438 24.28393555 C12.74995325 27.23579949 12.78099681 30.18697083 12.8125 33.13867188 C12.81902925 35.01822504 12.82428003 36.89778317 12.828125 38.77734375 C12.8404718 39.65768784 12.8528186 40.53803192 12.86553955 41.4450531 C12.84856503 46.12594853 12.79820184 49.66477419 9.5 53.3125 C7.44702148 53.91186523 7.44702148 53.91186523 5.12109375 53.87109375 C3.86329102 53.86045898 3.86329102 53.86045898 2.58007812 53.84960938 C1.70802734 53.81673828 0.83597656 53.78386719 -0.0625 53.75 C-0.93841797 53.74419922 -1.81433594 53.73839844 -2.71679688 53.73242188 C-9.20494628 53.60755372 -9.20494628 53.60755372 -11.5 51.3125 C-11.76069641 49.26991272 -11.76069641 49.26991272 -11.7746582 46.72680664 C-11.78419022 45.77564468 -11.79372223 44.82448273 -11.80354309 43.84449768 C-11.80263168 42.81429001 -11.80172028 41.78408234 -11.80078125 40.72265625 C-11.80506638 39.66719101 -11.8093515 38.61172577 -11.81376648 37.52427673 C-11.81951705 35.28905963 -11.82000472 33.05382382 -11.81567383 30.81860352 C-11.81251605 27.39241695 -11.83595706 23.9670952 -11.86132812 20.54101562 C-11.86360119 18.37239693 -11.86430458 16.2037759 -11.86328125 14.03515625 C-11.872491 13.00697281 -11.88170074 11.97878937 -11.89118958 10.91944885 C-11.88496078 9.96513474 -11.87873199 9.01082062 -11.87231445 8.02758789 C-11.87325859 6.76755699 -11.87325859 6.76755699 -11.8742218 5.48207092 C-10.77532519 -0.888841 -5.29373152 -0.11047019 0 0 Z " fill="#B54500" transform="translate(479.5,234.6875)"/>
<path d="M0 0 C4.29 0 8.58 0 13 0 C13 33.33 13 66.66 13 101 C7.31497175 97.58898305 7.31497175 97.58898305 4.8125 94.1875 C4.32394531 93.54167969 3.83539063 92.89585937 3.33203125 92.23046875 C0.13525407 86.87750755 -0.28455141 81.71650628 -0.22705078 75.60791016 C-0.22734283 74.78773407 -0.22763489 73.96755798 -0.22793579 73.12252808 C-0.22654919 70.42792966 -0.21101971 67.73361226 -0.1953125 65.0390625 C-0.19157999 63.16433869 -0.18873414 61.28961293 -0.18673706 59.41488647 C-0.17911939 54.49280361 -0.15948695 49.57083973 -0.1373291 44.64880371 C-0.11683044 39.62135426 -0.10772675 34.59388549 -0.09765625 29.56640625 C-0.07623927 19.71088537 -0.04212589 9.8554526 0 0 Z " fill="#D3D3F1" transform="translate(231,203)"/>
<path d="M0 0 C1.3771211 2.7542422 2.34342901 4.95912591 3.25 7.8125 C5.33991723 13.517121 8.9813854 17.65425693 14 21 C14.36076355 23.78408813 14.36076355 23.78408813 14.34057617 27.37744141 C14.34101425 28.03122269 14.34145233 28.68500397 14.34190369 29.3585968 C14.33981081 31.52322075 14.3164578 33.6870736 14.29296875 35.8515625 C14.28737453 37.35085629 14.28310361 38.85015556 14.28010559 40.34945679 C14.26864298 44.29845277 14.239164 48.24711852 14.20599365 52.19598389 C14.17532305 56.22436047 14.16160672 60.25279035 14.14648438 64.28125 C14.11429525 72.18766855 14.06151615 80.09375517 14 88 C9.38 88 4.76 88 0 88 C0 58.96 0 29.92 0 0 Z " fill="#E37300" transform="translate(230,283)"/>
<path d="M0 0 C0.33 0 0.66 0 1 0 C1 27.72 1 55.44 1 84 C-3.29 84 -7.58 84 -12 84 C-12.13565111 75.35067684 -12.24568513 66.70206207 -12.31087303 58.05191517 C-12.34216304 54.03510273 -12.38459034 50.01905681 -12.45263672 46.00268555 C-12.5179169 42.12524088 -12.55372358 38.24853252 -12.56926346 34.37058067 C-12.58033469 32.89252824 -12.60195561 31.41451532 -12.63438034 29.93677711 C-12.87949303 18.30123589 -12.87949303 18.30123589 -10.69107056 15.06340027 C-9.08203125 13.74804688 -9.08203125 13.74804688 -6 12 C-4.05050132 8.93713452 -4.05050132 8.93713452 -2.625 5.6875 C-2.12226563 4.61886719 -1.61953125 3.55023438 -1.1015625 2.44921875 C-0.73804688 1.64097656 -0.37453125 0.83273437 0 0 Z " fill="#EE8700" transform="translate(449,287)"/>
<path d="M0 0 C5.84337757 -0.29985753 11.65991301 -0.55773866 17.50488281 -0.71411133 C19.48822571 -0.77926353 21.47094928 -0.86782452 23.45214844 -0.98071289 C39.48253442 -1.87084236 39.48253442 -1.87084236 43.66503906 1.23736572 C46.73403255 4.71328767 48.32462955 8.70003081 50 13 C50.99963631 14.66688482 51.99953823 16.33361048 53 18 C53 18.66 53 19.32 53 20 C35.51 20 18.02 20 0 20 C0 13.4 0 6.8 0 0 Z " fill="#D9CEDC" transform="translate(230,371)"/>
<path d="M0 0 C13.86 0 27.72 0 42 0 C42 6.6 42 13.2 42 20 C24.51 20 7.02 20 -11 20 C-7.35666563 13.32055365 -3.69500201 6.65100361 0 0 Z " fill="#DAD2E0" transform="translate(408,371)"/>
<path d="M0 0 C0.70810318 0.00090637 1.41620636 0.00181274 2.14576721 0.00274658 C2.89226532 -0.00397064 3.63876343 -0.01068787 4.40788269 -0.01760864 C6.88250838 -0.03665045 9.35686378 -0.04051584 11.83155823 -0.04266357 C13.54787306 -0.04908699 15.26418678 -0.055815 16.98049927 -0.06283569 C20.58102457 -0.07482376 24.18145382 -0.07851493 27.78199768 -0.07733154 C32.40043005 -0.07712821 37.01824803 -0.10443763 41.63653469 -0.13887596 C45.18211711 -0.16109033 48.72755037 -0.16517078 52.27319527 -0.16411209 C53.97609132 -0.16647603 55.67899101 -0.17534394 57.38181877 -0.19077682 C59.76190862 -0.21032828 62.14065672 -0.20464282 64.52076721 -0.19256592 C65.22684616 -0.20380493 65.93292511 -0.21504395 66.66040039 -0.22662354 C69.89849129 -0.18477592 71.48939204 -0.09971582 73.87075806 2.19082642 C74.89796448 4.29327393 74.89796448 4.29327393 74.71046448 6.41827393 C73.89796448 8.29327393 73.89796448 8.29327393 71.89796448 10.29327393 C69.44506813 10.49669472 67.10456991 10.57651928 64.65016174 10.56793213 C63.90366364 10.57304306 63.15716553 10.57815399 62.38804626 10.5834198 C59.91340683 10.59735213 57.43904478 10.5963563 54.96437073 10.59405518 C53.24805599 10.5979402 51.53174221 10.60227447 49.81542969 10.60704041 C46.21489854 10.61451051 42.61446543 10.61420571 39.01393127 10.60894775 C34.39559649 10.60315298 29.77766273 10.62008032 25.15939426 10.64329243 C21.61381679 10.65801138 18.0683363 10.65890397 14.52273369 10.6557827 C12.81985111 10.65629687 11.11696323 10.66155252 9.41411018 10.67159462 C7.03419433 10.68390599 4.65506464 10.67719977 2.27516174 10.66558838 C1.21604332 10.67705399 1.21604332 10.67705399 0.13552856 10.68875122 C-2.74924865 10.65757883 -4.6644347 10.59563681 -7.0748291 8.93016052 C-8.10203552 7.29327393 -8.10203552 7.29327393 -7.91453552 4.73077393 C-6.406471 0.20658037 -4.46049092 0.05886992 0 0 Z " fill="#B54500" transform="translate(307.10203552246094,365.70672607421875)"/>
<path d="M0 0 C1.14806625 -0.00945648 2.29613251 -0.01891296 3.47898865 -0.02865601 C5.33995934 -0.01954697 5.33995934 -0.01954697 7.23852539 -0.01025391 C9.14898399 -0.01455917 9.14898399 -0.01455917 11.09803772 -0.01895142 C13.79418387 -0.0209949 16.48951673 -0.01694972 19.18554688 -0.00292969 C22.6368767 0.01414554 26.08750578 0.00433174 29.53880978 -0.01364708 C32.83457322 -0.02711344 36.13025279 -0.01767544 39.42602539 -0.01025391 C40.66464828 -0.0163266 41.90327118 -0.02239929 43.1794281 -0.02865601 C44.33064651 -0.01919952 45.48186493 -0.00974304 46.66796875 0 C48.18661781 0.00358017 48.18661781 0.00358017 49.73594666 0.00723267 C52.76662043 0.44082369 54.1474555 1.36469746 56.39868164 3.38818359 C55.52368164 9.26318359 55.52368164 9.26318359 54.39868164 10.38818359 C52.64939444 10.48183366 50.8963191 10.50562797 49.14453125 10.50170898 C48.02344467 10.50163345 46.90235809 10.50155792 45.74729919 10.5014801 C43.91764366 10.49373817 43.91764366 10.49373817 42.05102539 10.48583984 C40.80946182 10.4844249 39.56789825 10.48300995 38.28871155 10.48155212 C34.98262673 10.4768895 31.67661018 10.46789856 28.37054443 10.45684814 C24.99907014 10.44663186 21.62758881 10.44205404 18.25610352 10.43701172 C11.6369439 10.42595755 5.01781671 10.40920096 -1.60131836 10.38818359 C-1.91270752 11.33000488 -2.22409668 12.27182617 -2.54492188 13.2421875 C-5.30862863 21.47263014 -5.30862863 21.47263014 -8.60131836 24.38818359 C-12.35493132 25.07546484 -15.8293906 24.86380321 -19.60131836 24.38818359 C-18.14346108 19.30538391 -15.90022192 15.16999539 -13.16381836 10.70068359 C-12.57117188 9.70584961 -12.57117188 9.70584961 -11.96655273 8.69091797 C-6.71608082 0.01584541 -6.71608082 0.01584541 0 0 Z " fill="#7E8BC1" transform="translate(371.601318359375,283.61181640625)"/>
<path d="M0 0 C1.17139023 -0.00953201 2.34278046 -0.01906403 3.54966736 -0.02888489 C4.8204866 -0.02797348 6.09130585 -0.02706207 7.40063477 -0.02612305 C8.7002565 -0.03040817 9.99987823 -0.0346933 11.33888245 -0.03910828 C14.09201124 -0.04657532 16.84501182 -0.04627592 19.59814453 -0.04101562 C23.12691263 -0.03522209 26.65515566 -0.05214604 30.18383694 -0.0753603 C33.54779184 -0.09363334 36.91163044 -0.08991245 40.27563477 -0.08862305 C42.17882729 -0.10243767 42.17882729 -0.10243767 44.12046814 -0.11653137 C45.29501053 -0.11030258 46.46955292 -0.10407379 47.6796875 -0.09765625 C48.71512192 -0.09828568 49.75055634 -0.0989151 50.81736755 -0.0995636 C53.40454102 0.2746582 53.40454102 0.2746582 55.24281311 1.63777161 C56.87917669 3.94342476 56.75832027 5.51518004 56.40454102 8.2746582 C54.40454102 10.2746582 54.40454102 10.2746582 52.12985229 10.46565247 C51.18135406 10.43976547 50.23285583 10.41387848 49.25561523 10.38720703 C47.64286209 10.35407158 47.64286209 10.35407158 45.99752808 10.32026672 C44.82988922 10.29103622 43.66225037 10.26180573 42.45922852 10.23168945 C39.99571682 10.20813137 37.53216976 10.18806045 35.06860352 10.17114258 C31.17588606 10.13851519 27.28805925 10.08740083 23.39672852 9.9765625 C9.92644256 8.84448391 9.92644256 8.84448391 -2.48498535 12.59451294 C-4.91897611 15.36955621 -5.99748462 17.89618871 -7.23950195 21.39331055 C-7.68696777 22.34415527 -8.13443359 23.295 -8.59545898 24.2746582 C-12.48367684 25.36008987 -15.67512232 25.11781885 -19.59545898 24.2746582 C-17.868783 19.35951804 -15.24292865 15.04625354 -12.59545898 10.5871582 C-12.14428711 9.8156543 -11.69311523 9.04415039 -11.22827148 8.24926758 C-6.37472134 0.02838753 -6.37472134 0.02838753 0 0 Z " fill="#7D89C1" transform="translate(271.595458984375,283.725341796875)"/>
<path d="M0 0 C13.53 0 27.06 0 41 0 C41.020625 5.23875 41.04125 10.4775 41.0625 15.875 C41.071604 17.52741699 41.08070801 19.17983398 41.09008789 20.88232422 C41.09258545 22.1767041 41.09508301 23.47108398 41.09765625 24.8046875 C41.10277222 25.48539307 41.10788818 26.16609863 41.11315918 26.86743164 C41.1140718 31.7718564 41.1140718 31.7718564 40 34 C33.4 34 26.8 34 20 34 C20 23.11 20 12.22 20 1 C13.4 1 6.8 1 0 1 C0 0.67 0 0.34 0 0 Z " fill="#3F4A72" transform="translate(393,417)"/>
<path d="M0 0 C13.53 0 27.06 0 41 0 C41 0.33 41 0.66 41 1 C34.4 1 27.8 1 21 1 C21.01160156 3.29839844 21.02320313 5.59679687 21.03515625 7.96484375 C21.04294709 10.18220888 21.04902369 12.39957251 21.05493164 14.61694336 C21.0599714 16.16219766 21.0668032 17.70744716 21.07543945 19.25268555 C21.08752076 21.46925029 21.09323173 23.68575218 21.09765625 25.90234375 C21.10281754 26.5971434 21.10797882 27.29194305 21.11329651 28.00779724 C21.11349277 29.6722933 21.06189129 31.33665499 21 33 C19.44393249 34.55606751 17.94042629 34.12970769 15.78125 34.1328125 C14.50701172 34.13474609 14.50701172 34.13474609 13.20703125 34.13671875 C11.86705078 34.13091797 11.86705078 34.13091797 10.5 34.125 C9.60667969 34.12886719 8.71335938 34.13273437 7.79296875 34.13671875 C6.94347656 34.13542969 6.09398437 34.13414062 5.21875 34.1328125 C4.43435547 34.13168457 3.64996094 34.13055664 2.84179688 34.12939453 C1 34 1 34 0 33 C-0.0884283 30.55196233 -0.11535972 28.13155206 -0.09765625 25.68359375 C-0.09664917 25.03588013 -0.09564209 24.3881665 -0.09460449 23.7208252 C-0.08935843 21.29303221 -0.07539725 18.86526439 -0.0625 16.4375 C-0.041875 11.013125 -0.02125 5.58875 0 0 Z " fill="#3D4973" transform="translate(247,417)"/>
<path d="M0 0 C1.12796997 -0.01268417 2.25593994 -0.02536835 3.41809082 -0.03843689 C4.63170288 -0.03550125 5.84531494 -0.03256561 7.09570312 -0.02954102 C8.3457312 -0.03478287 9.59575928 -0.04002472 10.88366699 -0.04542542 C13.5267689 -0.05184942 16.16900756 -0.05194256 18.81201172 -0.04199219 C22.19508265 -0.03049518 25.5771109 -0.05072686 28.96004486 -0.07990932 C32.19276968 -0.10268757 35.42541684 -0.09580449 38.65820312 -0.09204102 C39.87181519 -0.10327499 41.08542725 -0.11450897 42.33581543 -0.12608337 C44.02777039 -0.11201195 44.02777039 -0.11201195 45.75390625 -0.09765625 C47.24138367 -0.097407 47.24138367 -0.097407 48.75891113 -0.09715271 C52.10430464 0.54329899 53.32017084 1.73691844 55.37695312 4.40405273 C55.31445312 7.02905273 55.31445312 7.02905273 54.37695312 9.40405273 C50.97327403 11.67317213 49.75616958 11.66056386 45.75976562 11.67871094 C44.03282471 11.69300896 44.03282471 11.69300896 42.27099609 11.70759583 C40.40531982 11.70622871 40.40531982 11.70622871 38.50195312 11.70483398 C37.22594238 11.70911911 35.94993164 11.71340424 34.63525391 11.71781921 C31.93508158 11.72356703 29.23529099 11.72499254 26.53515625 11.71972656 C23.07479441 11.71392741 19.61496704 11.73087452 16.1546936 11.75407124 C12.85378389 11.77234112 9.55290432 11.76862358 6.25195312 11.76733398 C5.00816895 11.77654373 3.76438477 11.78575348 2.48291016 11.79524231 C1.33161621 11.78901352 0.18032227 11.78278473 -1.00585938 11.77636719 C-2.0205127 11.77699661 -3.03516602 11.77762604 -4.08056641 11.77827454 C-6.62304688 11.40405273 -6.62304688 11.40405273 -8.44677734 10.03703308 C-9.62304688 8.40405273 -9.62304688 8.40405273 -10.06054688 5.90405273 C-9.62304688 3.40405273 -9.62304688 3.40405273 -7.94714355 1.77305603 C-5.0926643 0.09163222 -3.3017122 0.01798928 0 0 Z " fill="#BA4C00" transform="translate(317.623046875,384.595947265625)"/>
<path d="M0 0 C1.26328125 0.01804687 2.5265625 0.03609375 3.828125 0.0546875 C4.79234375 0.07789063 5.7565625 0.10109375 6.75 0.125 C5.18742188 1.16671875 3.6221511 2.20519613 2.03125 3.203125 C1.4434375 3.58984375 0.855625 3.9765625 0.25 4.375 C-0.3378125 4.75140625 -0.925625 5.1278125 -1.53125 5.515625 C-5.73357672 9.45053093 -6.44546231 13.63639156 -6.76171875 19.1796875 C-6.83440287 21.45271814 -6.89258961 23.72625104 -6.9375 26 C-6.97166016 27.1653125 -7.00582031 28.330625 -7.04101562 29.53125 C-7.12318678 32.39550179 -7.18827771 35.26023461 -7.25 38.125 C-11.54 38.125 -15.83 38.125 -20.25 38.125 C-20.35851234 34.29089729 -20.43757134 30.45990317 -20.5 26.625 C-20.53351562 25.54734375 -20.56703125 24.4696875 -20.6015625 23.359375 C-20.68613046 16.42480197 -19.99214817 12.01137176 -16.25 6.125 C-10.9972011 1.13484104 -7.21989252 -0.13370171 0 0 Z " fill="#525D91" transform="translate(28.25,418.875)"/>
<path d="M0 0 C2.83359844 -0.05449228 5.66612485 -0.09390733 8.5 -0.125 C9.29148437 -0.14175781 10.08296875 -0.15851563 10.8984375 -0.17578125 C17.43850998 -0.2293884 23.93353761 0.12396531 29.3125 4.25 C33.91276156 8.95724439 35.16246686 12.36638233 35.1875 18.875 C35.0946875 21.411875 35.0946875 21.411875 35 24 C31.37 24 27.74 24 24 24 C23.609375 21.4609375 23.21875 18.921875 22.828125 16.3828125 C22.24043832 13.89272625 22.24043832 13.89272625 20.21875 12.87695312 C17.9042344 11.96214898 16.14893824 11.69209735 13.671875 11.5859375 C12.87265625 11.54726562 12.0734375 11.50859375 11.25 11.46875 C10.425 11.4378125 9.6 11.406875 8.75 11.375 C7.90953125 11.33632812 7.0690625 11.29765625 6.203125 11.2578125 C4.13576618 11.16384164 2.06791373 11.08084436 0 11 C0 7.37 0 3.74 0 0 Z " fill="#7886BF" transform="translate(450,211)"/>
<path d="M0 0 C1.24040039 0.01353516 1.24040039 0.01353516 2.50585938 0.02734375 C4.52486708 0.05068488 6.54372356 0.08654712 8.5625 0.125 C8.5625 3.755 8.5625 7.385 8.5625 11.125 C6.80873047 11.18107422 6.80873047 11.18107422 5.01953125 11.23828125 C3.47132325 11.3039628 1.92314758 11.37040939 0.375 11.4375 C-0.39392578 11.46005859 -1.16285156 11.48261719 -1.95507812 11.50585938 C-6.4743548 11.71921578 -9.89094773 12.02176677 -13.4375 15.125 C-14.2481196 17.37839498 -14.2481196 17.37839498 -14.25 19.8125 C-14.311875 21.235625 -14.37375 22.65875 -14.4375 24.125 C-18.0675 24.125 -21.6975 24.125 -25.4375 24.125 C-26.06117661 13.41855149 -26.06117661 13.41855149 -23.75 8.625 C-16.61565957 0.91219954 -10.07764385 -0.21113517 0 0 Z " fill="#7886BE" transform="translate(221.4375,210.875)"/>
<path d="M0 0 C1.64510941 0.00015915 3.29022379 0.00585551 4.93530273 0.01586914 C6.23164894 0.01799156 6.23164894 0.01799156 7.55418396 0.02015686 C10.32578941 0.025773 13.09731528 0.0383282 15.86889648 0.05102539 C17.74324428 0.05603831 19.61759334 0.06060158 21.49194336 0.06469727 C26.09679192 0.07574767 30.70158069 0.09302309 35.30639648 0.11352539 C35.30639648 3.08352539 35.30639648 6.05352539 35.30639648 9.11352539 C29.94957515 9.18764589 24.59305186 9.24211315 19.23583984 9.27832031 C17.41319581 9.29341299 15.59058813 9.31388934 13.76806641 9.33984375 C11.14924148 9.37620642 8.53089641 9.39324663 5.91186523 9.40649414 C4.6882856 9.42971992 4.6882856 9.42971992 3.43998718 9.45341492 C-2.251924 9.4551107 -2.251924 9.4551107 -4.4485321 7.75630188 C-5.69360352 6.11352539 -5.69360352 6.11352539 -5.44360352 3.48852539 C-4.25177243 -0.28560639 -4.26341407 0.1310389 0 0 Z " fill="#A83B00" transform="translate(304.693603515625,366.886474609375)"/>
<path d="M0 0 C0 9.24 0 18.48 0 28 C-4.62 28 -9.24 28 -14 28 C-14.57866093 11.54031135 -14.57866093 11.54031135 -11 5 C-7.53671508 1.6232972 -4.91691894 0 0 0 Z " fill="#E37300" transform="translate(244,174)"/>
<path d="M0 0 C3.49136086 0.13390829 6.8969021 0.44243253 10.36157227 0.90307617 C9.70801758 1.65459961 9.05446289 2.40612305 8.38110352 3.18041992 C5.39931441 7.2003561 6.04533076 10.49964076 6.67407227 15.27807617 C6.90094727 15.81432617 7.12782227 16.35057617 7.36157227 16.90307617 C8.35157227 17.23307617 9.34157227 17.56307617 10.36157227 17.90307617 C10.36157227 18.23307617 10.36157227 18.56307617 10.36157227 18.90307617 C1.45157227 18.90307617 -7.45842773 18.90307617 -16.63842773 18.90307617 C-9.17060424 0.23351743 -9.17060424 0.23351743 0 0 Z " fill="#E8E8FC" transform="translate(414.638427734375,371.096923828125)"/>
<path d="M0 0 C11.59907578 -1.79779016 11.59907578 -1.79779016 17 0 C21.53917429 3.8277132 23.91659227 9.56889438 26 15 C26 15.99 26 16.98 26 18 C17.09 18 8.18 18 -1 18 C0.32 16.35 1.64 14.7 3 13 C4.16585191 9.58905085 4.16585191 9.58905085 4 6 C2.73250069 3.95764272 1.40463831 1.95058171 0 0 Z " fill="#E8E8FD" transform="translate(256,372)"/>
<path d="M0 0 C5.38511454 1.07702291 7.1187518 2.29125172 11 6 C12.76383549 8.87631755 13.24323538 10.97352335 13.1953125 14.328125 C13.18564453 15.52695313 13.18564453 15.52695313 13.17578125 16.75 C13.15902344 17.575 13.14226562 18.4 13.125 19.25 C13.11597656 20.09046875 13.10695313 20.9309375 13.09765625 21.796875 C13.07415817 23.86470604 13.03828908 25.93238995 13 28 C8.71 28 4.42 28 0 28 C0 18.76 0 9.52 0 0 Z " fill="#EE8700" transform="translate(437,174)"/>
<path d="M0 0 C4.62 0 9.24 0 14 0 C14 8.58 14 17.16 14 26 C6.68062827 24.78010471 6.68062827 24.78010471 3 21 C-1.15508071 14.40918233 -0.21751615 7.61306535 0 0 Z " fill="#E37300" transform="translate(230,391)"/>
<path d="M0 0 C4.29 0 8.58 0 13 0 C13.75516698 17.47372486 13.75516698 17.47372486 9 23 C5.58519231 25.64647596 4.41459478 26 0 26 C0 17.42 0 8.84 0 0 Z " fill="#EE8700" transform="translate(437,391)"/>
<path d="M0 0 C1.2463623 0.01047363 2.49272461 0.02094727 3.77685547 0.03173828 C4.77143265 0.03598312 4.77143265 0.03598312 5.78610229 0.04031372 C7.9055988 0.05151643 10.02467401 0.07662027 12.14404297 0.10205078 C13.58023479 0.11208051 15.01643322 0.12120637 16.45263672 0.12939453 C19.97490925 0.15145578 23.496935 0.18598585 27.01904297 0.22705078 C27.01904297 3.19705078 27.01904297 6.16705078 27.01904297 9.22705078 C22.7832197 9.27643706 18.54754832 9.31276341 14.31152344 9.33691406 C12.8700875 9.34698041 11.42867202 9.36063458 9.98730469 9.37792969 C7.91710363 9.4021509 5.84717221 9.4135272 3.77685547 9.42236328 C1.90731201 9.43807373 1.90731201 9.43807373 0 9.45410156 C-2.98095703 9.22705078 -2.98095703 9.22705078 -4.98095703 7.22705078 C-5.23095703 4.72705078 -5.23095703 4.72705078 -4.98095703 2.22705078 C-2.98095703 0.22705078 -2.98095703 0.22705078 0 0 Z " fill="#A83B00" transform="translate(312.98095703125,385.77294921875)"/>
<path d="M0 0 C4.95 0 9.9 0 15 0 C13.02 2.97 13.02 2.97 11 6 C11 11.88640914 12.13535776 13.1691972 16 18 C10.72 18 5.44 18 0 18 C0 12.06 0 6.12 0 0 Z " fill="#E8E8FE" transform="translate(231,372)"/>
<path d="M0 0 C4.95 0 9.9 0 15 0 C15 5.94 15 11.88 15 18 C10.05 18 5.1 18 0 18 C0.33 17.34 0.66 16.68 1 16 C1.66 16 2.32 16 3 16 C4.1891713 12.28383968 4.34026535 8.87902498 4 5 C2.68 3.35 1.36 1.7 0 0 Z " fill="#E8E8FE" transform="translate(434,372)"/>
</svg>
